Metropolis-Regular.ufo
<glyph name="exclam" format="1">
  <advance width="273"/>
  <unicode hex="0021"/>
  <outline>
    <contour>
      <point x="165" y="193" type="line"/>
      <point x="185" y="687" type="line"/>
      <point x="93" y="687" type="line"/>
      <point x="112" y="193" type="line"/>
    </contour>
    <component base="period" xOffset="10"/>
  </outline>
</glyph>
<glyph name="comma" format="1">
  <advance width="264"/>
  <unicode hex="002C"/>
  <outline>
    <contour>
      <point x="176" y="-58"/>
      <point x="193" y="-24"/>
      <point x="193" y="16" type="curve" smooth="yes"/>
      <point x="193" y="62"/>
      <point x="170" y="96"/>
      <point x="132" y="96" type="curve" smooth="yes"/>
      <point x="100" y="96"/>
      <point x="77" y="71"/>
      <point x="77" y="43" type="curve" smooth="yes"/>
      <point x="77" y="13"/>
      <point x="101" y="-12"/>
      <point x="131" y="-12" type="curve"/>
      <point x="123" y="-43"/>
      <point x="106" y="-74"/>
      <point x="79" y="-105" type="curve"/>
      <point x="116" y="-133" type="line"/>
    </contour>
  </outline>
</glyph>
<glyph name="period" format="1">
  <advance width="253"/>
  <unicode hex="002E"/>
  <outline>
    <contour>
      <point x="157" y="-12"/>
      <point x="181" y="13"/>
      <point x="181" y="43" type="curve" smooth="yes"/>
      <point x="181" y="71"/>
      <point x="157" y="96"/>
      <point x="128" y="96" type="curve" smooth="yes"/>
      <point x="97" y="96"/>
      <point x="73" y="71"/>
      <point x="73" y="43" type="curve" smooth="yes"/>
      <point x="73" y="13"/>
      <point x="97" y="-12"/>
      <point x="128" y="-12" type="curve" smooth="yes"/>
    </contour>
  </outline>
</glyph>
<glyph name="less" format="1">
  <advance width="586"/>
  <unicode hex="003C"/>
  <outline>
    <contour>
      <point x="510" y="159" type="line"/>
      <point x="129" y="344" type="line"/>
      <point x="510" y="529" type="line"/>
      <point x="510" y="599" type="line"/>
      <point x="55" y="373" type="line"/>
      <point x="55" y="314" type="line"/>
      <point x="510" y="88" type="line"/>
    </contour>
  </outline>
</glyph>
<glyph name="question" format="1">
  <advance width="507"/>
  <unicode hex="003F"/>
  <outline>
    <contour>
      <point x="263" y="193" type="line"/>
      <point x="263" y="321" type="line"/>
      <point x="380" y="346"/>
      <point x="463" y="427"/>
      <point x="463" y="516" type="curve" smooth="yes"/>
      <point x="463" y="618"/>
      <point x="380" y="699"/>
      <point x="253" y="699" type="curve" smooth="yes"/>
      <point x="152" y="699"/>
      <point x="80" y="650"/>
      <point x="27" y="584" type="curve"/>
      <point x="78" y="533" type="line"/>
      <point x="122" y="587"/>
      <point x="174" y="628"/>
      <point x="249" y="628" type="curve" smooth="yes"/>
      <point x="333" y="628"/>
      <point x="384" y="570"/>
      <point x="384" y="509" type="curve" smooth="yes"/>
      <point x="384" y="444"/>
      <point x="301" y="390"/>
      <point x="184" y="380" type="curve"/>
      <point x="184" y="193" type="line"/>
    </contour>
    <component base="period" xOffset="96"/>
  </outline>
</glyph>
<glyph name="C" format="1">
  <advance width="680"/>
  <unicode hex="0043"/>
  <outline>
    <contour>
      <point x="499" y="-12"/>
      <point x="587" y="29"/>
      <point x="651" y="93" type="curve"/>
      <point x="598" y="147" type="line"/>
      <point x="548" y="94"/>
      <point x="479" y="60"/>
      <point x="404" y="60" type="curve" smooth="yes"/>
      <point x="256" y="60"/>
      <point x="131" y="190"/>
      <point x="131" y="344" type="curve" smooth="yes"/>
      <point x="131" y="497"/>
      <point x="256" y="627"/>
      <point x="404" y="627" type="curve" smooth="yes"/>
      <point x="479" y="627"/>
      <point x="548" y="593"/>
      <point x="598" y="540" type="curve"/>
      <point x="651" y="594" type="line"/>
      <point x="587" y="659"/>
      <point x="499" y="699"/>
      <point x="404" y="699" type="curve" smooth="yes"/>
      <point x="214" y="699"/>
      <point x="52" y="537"/>
      <point x="52" y="344" type="curve" smooth="yes"/>
      <point x="52" y="151"/>
      <point x="214" y="-12"/>
      <point x="404" y="-12" type="curve" smooth="yes"/>
    </contour>
    <contour>
      <point x="384" y="687" type="move" name="top"/>
    </contour>
    <contour>
      <point x="394" y="0" type="move" name="bottom"/>
    </contour>
  </outline>
</glyph>
<glyph name="D" format="1">
  <advance width="762"/>
  <unicode hex="0044"/>
  <outline>
    <contour>
      <point x="326" y="0" type="line" smooth="yes"/>
      <point x="544" y="0"/>
      <point x="698" y="143"/>
      <point x="698" y="344" type="curve" smooth="yes"/>
      <point x="698" y="545"/>
      <point x="544" y="687"/>
      <point x="326" y="687" type="curve" smooth="yes"/>
      <point x="94" y="687" type="line"/>
      <point x="94" y="0" type="line"/>
    </contour>
    <contour>
      <point x="172" y="616" type="line"/>
      <point x="326" y="616" type="line" smooth="yes"/>
      <point x="498" y="616"/>
      <point x="619" y="503"/>
      <point x="619" y="344" type="curve" smooth="yes"/>
      <point x="619" y="184"/>
      <point x="498" y="71"/>
      <point x="326" y="71" type="curve" smooth="yes"/>
      <point x="172" y="71" type="line"/>
    </contour>
    <contour>
      <point x="326" y="687" type="move" name="top"/>
    </contour>
  </outline>
</glyph>
<glyph name="F" format="1">
  <advance width="609"/>
  <unicode hex="0046"/>
  <outline>
    <contour>
      <point x="158" y="0" type="line"/>
      <point x="158" y="333" type="line"/>
      <point x="138" y="313" type="line"/>
      <point x="531" y="313" type="line"/>
      <point x="531" y="387" type="line"/>
      <point x="138" y="387" type="line"/>
      <point x="158" y="367" type="line"/>
      <point x="158" y="633" type="line"/>
      <point x="138" y="613" type="line"/>
      <point x="572" y="613" type="line"/>
      <point x="572" y="687" type="line"/>
      <point x="79" y="687" type="line"/>
      <point x="79" y="0" type="line"/>
    </contour>
  </outline>
</glyph>
<glyph name="I" format="1">
  <advance width="236"/>
  <unicode hex="0049"/>
  <outline>
    <contour>
      <point x="157" y="0" type="line"/>
      <point x="157" y="687" type="line"/>
      <point x="79" y="687" type="line"/>
      <point x="79" y="0" type="line"/>
    </contour>
    <contour>
      <point x="118" y="687" type="move" name="top"/>
    </contour>
    <contour>
      <point x="157" y="0" type="move" name="bottom"/>
    </contour>
  </outline>
</glyph>
<glyph name="M" format="1">
  <advance width="854"/>
  <unicode hex="004D"/>
  <outline>
    <contour>
      <point x="172" y="0" type="line"/>
      <point x="172" y="519" type="line"/>
      <point x="427" y="40" type="line"/>
      <point x="682" y="519" type="line"/>
      <point x="682" y="0" type="line"/>
      <point x="760" y="0" type="line"/>
      <point x="760" y="687" type="line"/>
      <point x="682" y="687" type="line"/>
      <point x="427" y="208" type="line"/>
      <point x="172" y="687" type="line"/>
      <point x="94" y="687" type="line"/>
      <point x="94" y="0" type="line"/>
    </contour>
  </outline>
</glyph>
<glyph name="P" format="1">
  <advance width="644"/>
  <unicode hex="0050"/>
  <outline>
    <contour>
      <point x="157" y="0" type="line"/>
      <point x="157" y="247" type="line"/>
      <point x="358" y="247" type="line" smooth="yes"/>
      <point x="500" y="247"/>
      <point x="611" y="338"/>
      <point x="611" y="467" type="curve" smooth="yes"/>
      <point x="611" y="596"/>
      <point x="500" y="687"/>
      <point x="358" y="687" type="curve" smooth="yes"/>
      <point x="79" y="687" type="line"/>
      <point x="79" y="0" type="line"/>
    </contour>
    <contour>
      <point x="157" y="613" type="line"/>
      <point x="344" y="613" type="line" smooth="yes"/>
      <point x="456" y="613"/>
      <point x="532" y="559"/>
      <point x="532" y="467" type="curve" smooth="yes"/>
      <point x="532" y="375"/>
      <point x="456" y="321"/>
      <point x="344" y="321" type="curve" smooth="yes"/>
      <point x="157" y="321" type="line"/>
    </contour>
  </outline>
</glyph>
<glyph name="Q" format="1">
  <advance width="807"/>
  <unicode hex="0051"/>
  <outline>
    <contour>
      <point x="755" y="58" type="line"/>
      <point x="511" y="270" type="line"/>
      <point x="461" y="212" type="line"/>
      <point x="705" y="0" type="line"/>
    </contour>
    <component base="O"/>
  </outline>
</glyph>
<glyph name="S" format="1">
  <advance width="613"/>
  <unicode hex="0053"/>
  <outline>
    <contour>
      <point x="477" y="-11"/>
      <point x="559" y="78"/>
      <point x="559" y="187" type="curve" smooth="yes"/>
      <point x="559" y="308"/>
      <point x="465" y="355"/>
      <point x="334" y="386" type="curve" smooth="yes"/>
      <point x="217" y="414"/>
      <point x="149" y="439"/>
      <point x="149" y="510" type="curve" smooth="yes"/>
      <point x="149" y="573"/>
      <point x="211" y="629"/>
      <point x="296" y="629" type="curve" smooth="yes"/>
      <point x="368" y="629"/>
      <point x="436" y="596"/>
      <point x="493" y="541" type="curve"/>
      <point x="541" y="602" type="line"/>
      <point x="478" y="660"/>
      <point x="402" y="700"/>
      <point x="300" y="700" type="curve" smooth="yes"/>
      <point x="168" y="700"/>
      <point x="70" y="614"/>
      <point x="70" y="504" type="curve" smooth="yes"/>
      <point x="70" y="385"/>
      <point x="157" y="342"/>
      <point x="295" y="310" type="curve" smooth="yes"/>
      <point x="415" y="282"/>
      <point x="480" y="253"/>
      <point x="480" y="180" type="curve" smooth="yes"/>
      <point x="480" y="118"/>
      <point x="426" y="60"/>
      <point x="320" y="60" type="curve" smooth="yes"/>
      <point x="224" y="60"/>
      <point x="153" y="101"/>
      <point x="95" y="159" type="curve"/>
      <point x="46" y="98" type="line"/>
      <point x="115" y="30"/>
      <point x="204" y="-11"/>
      <point x="317" y="-11" type="curve" smooth="yes"/>
    </contour>
    <contour>
      <point x="300" y="687" type="move" name="top"/>
    </contour>
    <contour>
      <point x="307" y="0" type="move" name="bottom"/>
    </contour>
  </outline>
</glyph>
<glyph name="T" format="1">
  <advance width="630"/>
  <unicode hex="0054"/>
  <outline>
    <contour>
      <point x="354" y="0" type="line"/>
      <point x="354" y="613" type="line"/>
      <point x="585" y="613" type="line"/>
      <point x="585" y="687" type="line"/>
      <point x="45" y="687" type="line"/>
      <point x="45" y="613" type="line"/>
      <point x="276" y="613" type="line"/>
      <point x="276" y="0" type="line"/>
    </contour>
    <contour>
      <point x="315" y="687" type="move" name="top"/>
    </contour>
    <contour>
      <point x="309" y="0" type="move" name="bottom"/>
    </contour>
  </outline>
</glyph>
<glyph name="Z" format="1">
  <advance width="639"/>
  <unicode hex="005A"/>
  <outline>
    <contour>
      <point x="583" y="0" type="line"/>
      <point x="583" y="74" type="line"/>
      <point x="164" y="74" type="line"/>
      <point x="579" y="625" type="line"/>
      <point x="579" y="687" type="line"/>
      <point x="65" y="687" type="line"/>
      <point x="65" y="613" type="line"/>
      <point x="472" y="613" type="line"/>
      <point x="58" y="62" type="line"/>
      <point x="58" y="0" type="line"/>
    </contour>
    <contour>
      <point x="322" y="687" type="move" name="top"/>
    </contour>
  </outline>
</glyph>
<glyph name="bracketleft" format="1">
  <advance width="366"/>
  <unicode hex="005B"/>
  <outline>
    <contour>
      <point x="317" y="-115" type="line"/>
      <point x="317" y="-58" type="line"/>
      <point x="147" y="-58" type="line"/>
      <point x="147" y="677" type="line"/>
      <point x="317" y="677" type="line"/>
      <point x="317" y="734" type="line"/>
      <point x="81" y="734" type="line"/>
      <point x="81" y="-115" type="line"/>
    </contour>
  </outline>
</glyph>
<glyph name="bracketright" format="1">
  <advance width="366"/>
  <unicode hex="005D"/>
  <outline>
    <contour>
      <point x="285" y="-115" type="line"/>
      <point x="285" y="734" type="line"/>
      <point x="49" y="734" type="line"/>
      <point x="49" y="677" type="line"/>
      <point x="219" y="677" type="line"/>
      <point x="219" y="-58" type="line"/>
      <point x="49" y="-58" type="line"/>
      <point x="49" y="-115" type="line"/>
    </contour>
  </outline>
</glyph>
<glyph name="grave" format="1">
  <advance width="326"/>
  <unicode hex="0060"/>
  <outline>
    <contour>
      <point x="263" y="576" type="line"/>
      <point x="142" y="720" type="line"/>
      <point x="63" y="702" type="line"/>
      <point x="205" y="576" type="line"/>
    </contour>
    <contour>
      <point x="193" y="704" type="move" name="top"/>
    </contour>
    <contour>
      <point x="193" y="517" type="move" name="_top"/>
    </contour>
  </outline>
</glyph>
<glyph name="a" format="1">
  <advance width="573"/>
  <unicode hex="0061"/>
  <outline>
    <contour>
      <point x="496" y="0" type="line"/>
      <point x="496" y="315" type="line" smooth="yes"/>
      <point x="496" y="440"/>
      <point x="427" y="529"/>
      <point x="286" y="529" type="curve" smooth="yes"/>
      <point x="236" y="529"/>
      <point x="174" y="516"/>
      <point x="100" y="479" type="curve"/>
      <point x="130" y="418" type="line"/>
      <point x="177" y="442"/>
      <point x="229" y="465"/>
      <point x="281" y="465" type="curve" smooth="yes"/>
      <point x="393" y="465"/>
      <point x="421" y="385"/>
      <point x="421" y="315" type="curve" smooth="yes"/>
      <point x="421" y="0" type="line"/>
    </contour>
    <contour>
      <point x="321" y="-12"/>
      <point x="417" y="35"/>
      <point x="438" y="123" type="curve"/>
      <point x="421" y="162" type="line"/>
      <point x="401" y="89"/>
      <point x="320" y="54"/>
      <point x="252" y="54" type="curve" smooth="yes"/>
      <point x="179" y="54"/>
      <point x="123" y="92"/>
      <point x="123" y="156" type="curve" smooth="yes"/>
      <point x="123" y="218"/>
      <point x="188" y="262"/>
      <point x="265" y="262" type="curve" smooth="yes"/>
      <point x="335" y="262"/>
      <point x="399" y="250"/>
      <point x="454" y="230" type="curve"/>
      <point x="454" y="284" type="line"/>
      <point x="393" y="308"/>
      <point x="321" y="325"/>
      <point x="253" y="325" type="curve" smooth="yes"/>
      <point x="142" y="325"/>
      <point x="50" y="256"/>
      <point x="50" y="153" type="curve" smooth="yes"/>
      <point x="50" y="51"/>
      <point x="130" y="-12"/>
      <point x="239" y="-12" type="curve" smooth="yes"/>
    </contour>
    <contour>
      <point x="293" y="517" type="move" name="top"/>
    </contour>
    <contour>
      <point x="496" y="0" type="move" name="bottom"/>
    </contour>
  </outline>
</glyph>
<glyph name="g" format="1">
  <advance width="636"/>
  <unicode hex="0067"/>
  <outline>
    <contour>
      <point x="478" y="55" type="line" smooth="yes"/>
      <point x="478" y="-46"/>
      <point x="408" y="-105"/>
      <point x="289" y="-105" type="curve" smooth="yes"/>
      <point x="225" y="-105"/>
      <point x="163" y="-82"/>
      <point x="123" y="-44" type="curve"/>
      <point x="90" y="-103" type="line"/>
      <point x="137" y="-143"/>
      <point x="215" y="-172"/>
      <point x="299" y="-172" type="curve" smooth="yes"/>
      <point x="448" y="-172"/>
      <point x="553" y="-78"/>
      <point x="553" y="55" type="curve" smooth="yes"/>
      <point x="553" y="517" type="line"/>
      <point x="478" y="517" type="line"/>
    </contour>
    <contour>
      <point x="203" y="105"/>
      <point x="131" y="179"/>
      <point x="131" y="284" type="curve" smooth="yes"/>
      <point x="131" y="388"/>
      <point x="203" y="462"/>
      <point x="304" y="462" type="curve" smooth="yes"/>
      <point x="406" y="462"/>
      <point x="478" y="388"/>
      <point x="478" y="284" type="curve" smooth="yes"/>
      <point x="478" y="179"/>
      <point x="406" y="105"/>
      <point x="304" y="105" type="curve" smooth="yes"/>
    </contour>
    <contour>
      <point x="493" y="401" type="line"/>
      <point x="455" y="480"/>
      <point x="383" y="529"/>
      <point x="290" y="529" type="curve" smooth="yes"/>
      <point x="151" y="529"/>
      <point x="52" y="428"/>
      <point x="52" y="284" type="curve" smooth="yes"/>
      <point x="52" y="140"/>
      <point x="151" y="38"/>
      <point x="290" y="38" type="curve" smooth="yes"/>
      <point x="383" y="38"/>
      <point x="455" y="87"/>
      <point x="493" y="166" type="curve"/>
    </contour>
    <contour>
      <point x="325" y="517" type="move" name="top"/>
    </contour>
    <contour>
      <point x="299" y="-172" type="move" name="bottom"/>
    </contour>
  </outline>
</glyph>
<glyph name="j" format="1">
  <advance width="225"/>
  <unicode hex="006A"/>
  <outline>
    <contour>
      <point x="140" y="611"/>
      <point x="162" y="634"/>
      <point x="162" y="661" type="curve" smooth="yes"/>
      <point x="162" y="687"/>
      <point x="140" y="710"/>
      <point x="113" y="710" type="curve" smooth="yes"/>
      <point x="85" y="710"/>
      <point x="63" y="687"/>
      <point x="63" y="661" type="curve" smooth="yes"/>
      <point x="63" y="634"/>
      <point x="85" y="611"/>
      <point x="113" y="611" type="curve" smooth="yes"/>
    </contour>
    <component base="jdotless"/>
  </outline>
</glyph>
<glyph name="o" format="1">
  <advance width="631"/>
  <unicode hex="006F"/>
  <outline>
    <contour>
      <point x="461" y="-12"/>
      <point x="583" y="112"/>
      <point x="583" y="259" type="curve" smooth="yes"/>
      <point x="583" y="406"/>
      <point x="461" y="529"/>
      <point x="316" y="529" type="curve" smooth="yes"/>
      <point x="171" y="529"/>
      <point x="48" y="406"/>
      <point x="48" y="259" type="curve" smooth="yes"/>
      <point x="48" y="112"/>
      <point x="171" y="-12"/>
      <point x="316" y="-12" type="curve" smooth="yes"/>
    </contour>
    <contour>
      <point x="213" y="55"/>
      <point x="127" y="148"/>
      <point x="127" y="259" type="curve" smooth="yes"/>
      <point x="127" y="369"/>
      <point x="213" y="462"/>
      <point x="316" y="462" type="curve" smooth="yes"/>
      <point x="418" y="462"/>
      <point x="504" y="369"/>
      <point x="504" y="259" type="curve" smooth="yes"/>
      <point x="504" y="148"/>
      <point x="418" y="55"/>
      <point x="316" y="55" type="curve" smooth="yes"/>
    </contour>
    <contour>
      <point x="316" y="517" type="move" name="top"/>
    </contour>
  </outline>
</glyph>
<glyph name="r" format="1">
  <advance width="386"/>
  <unicode hex="0072"/>
  <outline>
    <contour>
      <point x="158" y="390"/>
      <point x="241" y="462"/>
      <point x="358" y="462" type="curve"/>
      <point x="358" y="529" type="line"/>
      <point x="231" y="529"/>
      <point x="142" y="450"/>
      <point x="142" y="339" type="curve"/>
      <point x="158" y="289" type="line"/>
    </contour>
    <component base="idotless" xOffset="8"/>
    <contour>
      <point x="226" y="517" type="move" name="top"/>
    </contour>
  </outline>
</glyph>
<glyph name="t" format="1">
  <advance width="370"/>
  <unicode hex="0074"/>
  <outline>
    <contour>
      <point x="279" y="-12"/>
      <point x="313" y="0"/>
      <point x="340" y="21" type="curve"/>
      <point x="303" y="76" type="line"/>
      <point x="292" y="64"/>
      <point x="272" y="55"/>
      <point x="249" y="55" type="curve" smooth="yes"/>
      <point x="219" y="55"/>
      <point x="193" y="82"/>
      <point x="193" y="120" type="curve" smooth="yes"/>
      <point x="193" y="659" type="line"/>
      <point x="118" y="659" type="line"/>
      <point x="118" y="120" type="line" smooth="yes"/>
      <point x="118" y="43"/>
      <point x="170" y="-12"/>
      <point x="244" y="-12" type="curve" smooth="yes"/>
    </contour>
    <contour>
      <point x="320" y="450" type="line"/>
      <point x="320" y="517" type="line"/>
      <point x="37" y="517" type="line"/>
      <point x="37" y="450" type="line"/>
    </contour>
    <contour>
      <point x="246" y="0" type="move" name="bottom"/>
    </contour>
  </outline>
</glyph>
<glyph name="v" format="1">
  <advance width="563"/>
  <unicode hex="0076"/>
  <outline>
    <contour>
      <point x="319" y="0" type="line"/>
      <point x="536" y="517" type="line"/>
      <point x="452" y="517" type="line"/>
      <point x="283" y="88" type="line"/>
      <point x="111" y="517" type="line"/>
      <point x="27" y="517" type="line"/>
      <point x="247" y="0" type="line"/>
    </contour>
  </outline>
</glyph>
<glyph name="y" format="1">
  <advance width="593"/>
  <unicode hex="0079"/>
  <outline>
    <contour>
      <point x="224" y="-179"/>
      <point x="274" y="-146"/>
      <point x="310" y="-58" type="curve" smooth="yes"/>
      <point x="546" y="517" type="line"/>
      <point x="465" y="517" type="line"/>
      <point x="294" y="87" type="line"/>
      <point x="113" y="517" type="line"/>
      <point x="30" y="517" type="line"/>
      <point x="255" y="-2" type="line"/>
      <point x="225" y="-66" type="line"/>
      <point x="205" y="-101"/>
      <point x="183" y="-112"/>
      <point x="150" y="-112" type="curve" smooth="yes"/>
      <point x="128" y="-112"/>
      <point x="107" y="-108"/>
      <point x="89" y="-99" type="curve"/>
      <point x="71" y="-163" type="line"/>
      <point x="95" y="-174"/>
      <point x="123" y="-180"/>
      <point x="153" y="-180" type="curve" smooth="yes"/>
    </contour>
    <contour>
      <point x="294" y="517" type="move" name="top"/>
    </contour>
  </outline>
</glyph>
<glyph name="braceleft" format="1">
  <advance width="394"/>
  <unicode hex="007B"/>
  <outline>
    <contour>
      <point x="348" y="-113" type="line"/>
      <point x="231" y="-95"/>
      <point x="206" y="-73"/>
      <point x="206" y="8" type="curve" smooth="yes"/>
      <point x="207" y="151" type="line" smooth="yes"/>
      <point x="207" y="214"/>
      <point x="182" y="248"/>
      <point x="132" y="266" type="curve"/>
      <point x="181" y="283"/>
      <point x="207" y="317"/>
      <point x="207" y="380" type="curve" smooth="yes"/>
      <point x="206" y="524" type="line" smooth="yes"/>
      <point x="206" y="603"/>
      <point x="229" y="626"/>
      <point x="348" y="644" type="curve"/>
      <point x="342" y="697" type="line"/>
      <point x="188" y="680"/>
      <point x="141" y="632"/>
      <point x="141" y="528" type="curve" smooth="yes"/>
      <point x="141" y="388" type="line" smooth="yes"/>
      <point x="141" y="322"/>
      <point x="115" y="293"/>
      <point x="43" y="293" type="curve"/>
      <point x="43" y="238" type="line"/>
      <point x="114" y="238"/>
      <point x="141" y="211"/>
      <point x="141" y="144" type="curve" smooth="yes"/>
      <point x="141" y="3" type="line" smooth="yes"/>
      <point x="141" y="-100"/>
      <point x="187" y="-149"/>
      <point x="342" y="-166" type="curve"/>
    </contour>
  </outline>
</glyph>
<glyph name="yen" format="1">
  <advance width="671"/>
  <unicode hex="00A5"/>
  <outline>
    <contour>
      <point x="584" y="115" type="line"/>
      <point x="584" y="182" type="line"/>
      <point x="88" y="182" type="line"/>
      <point x="88" y="115" type="line"/>
    </contour>
    <contour>
      <point x="584" y="262" type="line"/>
      <point x="584" y="329" type="line"/>
      <point x="88" y="329" type="line"/>
      <point x="88" y="262" type="line"/>
    </contour>
    <component base="Y"/>
  </outline>
</glyph>
<glyph name="paragraph" format="1">
  <advance width="621"/>
  <unicode hex="00B6"/>
  <outline>
    <contour>
      <point x="332" y="-50" type="line"/>
      <point x="332" y="629" type="line"/>
      <point x="449" y="629" type="line"/>
      <point x="449" y="-50" type="line"/>
      <point x="511" y="-50" type="line"/>
      <point x="511" y="687" type="line"/>
      <point x="257" y="687" type="line"/>
      <point x="130" y="687"/>
      <point x="39" y="607"/>
      <point x="39" y="491" type="curve" smooth="yes"/>
      <point x="39" y="377"/>
      <point x="131" y="297"/>
      <point x="270" y="297" type="curve"/>
      <point x="270" y="-50" type="line"/>
    </contour>
  </outline>
</glyph>
<glyph name="periodcentered" format="1">
  <advance width="238"/>
  <unicode hex="00B7"/>
  <outline>
    <contour>
      <point x="148" y="221"/>
      <point x="171" y="243"/>
      <point x="171" y="273" type="curve" smooth="yes"/>
      <point x="171" y="302"/>
      <point x="148" y="324"/>
      <point x="120" y="324" type="curve" smooth="yes"/>
      <point x="91" y="324"/>
      <point x="68" y="302"/>
      <point x="68" y="273" type="curve" smooth="yes"/>
      <point x="68" y="243"/>
      <point x="91" y="221"/>
      <point x="120" y="221" type="curve" smooth="yes"/>
    </contour>
  </outline>
</glyph>
<glyph name="AE" format="1">
  <advance width="1024"/>
  <unicode hex="00C6"/>
  <outline>
    <contour>
      <point x="122" y="0" type="line"/>
      <point x="519" y="687" type="line"/>
      <point x="428" y="687" type="line"/>
      <point x="32" y="0" type="line"/>
    </contour>
    <contour>
      <point x="497" y="156" type="line"/>
      <point x="497" y="230" type="line"/>
      <point x="178" y="230" type="line"/>
      <point x="178" y="156" type="line"/>
    </contour>
    <component base="E" xOffset="397"/>
  </outline>
</glyph>
<glyph name="Eth" format="1">
  <advance width="779"/>
  <unicode hex="00D0"/>
  <outline>
    <contour>
      <point x="390" y="313" type="line"/>
      <point x="391" y="387" type="line"/>
      <point x="42" y="387" type="line"/>
      <point x="42" y="313" type="line"/>
    </contour>
    <component base="D" xOffset="17"/>
  </outline>
</glyph>
<glyph name="Thorn" format="1">
  <advance width="644"/>
  <unicode hex="00DE"/>
  <outline>
    <contour>
      <point x="157" y="0" type="line"/>
      <point x="157" y="126" type="line"/>
      <point x="358" y="126" type="line" smooth="yes"/>
      <point x="500" y="126"/>
      <point x="611" y="217"/>
      <point x="611" y="346" type="curve" smooth="yes"/>
      <point x="611" y="475"/>
      <point x="500" y="566"/>
      <point x="358" y="566" type="curve" smooth="yes"/>
      <point x="159" y="566" type="line"/>
      <point x="159" y="687" type="line"/>
      <point x="79" y="687" type="line"/>
      <point x="79" y="0" type="line"/>
    </contour>
    <contour>
      <point x="157" y="492" type="line"/>
      <point x="344" y="492" type="line" smooth="yes"/>
      <point x="456" y="492"/>
      <point x="532" y="438"/>
      <point x="532" y="346" type="curve" smooth="yes"/>
      <point x="532" y="254"/>
      <point x="456" y="200"/>
      <point x="344" y="200" type="curve" smooth="yes"/>
      <point x="157" y="200" type="line"/>
    </contour>
  </outline>
</glyph>
<glyph name="eth" format="1">
  <advance width="627"/>
  <unicode hex="00F0"/>
  <outline>
    <contour>
      <point x="211" y="56"/>
      <point x="138" y="135"/>
      <point x="138" y="247" type="curve" smooth="yes"/>
      <point x="138" y="355"/>
      <point x="210" y="432"/>
      <point x="312" y="432" type="curve" smooth="yes"/>
      <point x="420" y="432"/>
      <point x="488" y="348"/>
      <point x="488" y="245" type="curve" smooth="yes"/>
      <point x="488" y="134"/>
      <point x="416" y="56"/>
      <point x="315" y="56" type="curve" smooth="yes"/>
    </contour>
    <contour>
      <point x="407" y="519"/>
      <point x="460" y="417" type="curve"/>
      <point x="417" y="468"/>
      <point x="363" y="498"/>
      <point x="293" y="498" type="curve" smooth="yes"/>
      <point x="157" y="498"/>
      <point x="60" y="394"/>
      <point x="60" y="248" type="curve" smooth="yes"/>
      <point x="60" y="96"/>
      <point x="166" y="-12"/>
      <point x="315" y="-12" type="curve" smooth="yes"/>
      <point x="463" y="-12"/>
      <point x="567" y="104"/>
      <point x="567" y="269" type="curve" smooth="yes"/>
      <point x="567" y="441"/>
      <point x="461" y="562"/>
      <point x="262" y="716" type="curve"/>
      <point x="186" y="685" type="line"/>
      <point x="299" y="609"/>
    </contour>
    <contour>
      <point x="461" y="640" type="line"/>
      <point x="434" y="702" type="line"/>
      <point x="176" y="587" type="line"/>
      <point x="203" y="525" type="line"/>
    </contour>
  </outline>
</glyph>
<glyph name="dcaron" format="1">
  <advance width="638"/>
  <unicode hex="010F"/>
  <outline>
    <component base="d"/>
    <component base="commaaccentcomb" xOffset="541" yOffset="781"/>
    <contour>
      <point x="143" y="704" type="move" name="top"/>
    </contour>
    <contour>
      <point x="143" y="517" type="move" name="_top"/>
    </contour>
  </outline>
</glyph>
<glyph name="dcroat" format="1">
  <advance width="657"/>
  <unicode hex="0111"/>
  <outline>
    <contour>
      <point x="620" y="585" type="line"/>
      <point x="620" y="635" type="line"/>
      <point x="310" y="635" type="line"/>
      <point x="310" y="585" type="line"/>
    </contour>
    <component base="d"/>
  </outline>
</glyph>
<glyph name="dotaccent" format="1">
  <advance width="218"/>
  <unicode hex="02D9"/>
  <outline>
    <contour>
      <point x="134" y="597"/>
      <point x="155" y="618"/>
      <point x="155" y="643" type="curve" smooth="yes"/>
      <point x="155" y="667"/>
      <point x="134" y="689"/>
      <point x="109" y="689" type="curve" smooth="yes"/>
      <point x="83" y="689"/>
      <point x="63" y="667"/>
      <point x="63" y="643" type="curve" smooth="yes"/>
      <point x="63" y="618"/>
      <point x="83" y="597"/>
      <point x="109" y="597" type="curve" smooth="yes"/>
    </contour>
    <contour>
      <point x="109" y="704" type="move" name="top"/>
    </contour>
    <contour>
      <point x="109" y="0" type="move" name="bottom"/>
    </contour>
    <contour>
      <point x="109" y="517" type="move" name="_top"/>
    </contour>
  </outline>
</glyph>
<glyph name="tilde" format="1">
  <advance width="451"/>
  <unicode hex="02DC"/>
  <outline>
    <contour>
      <point x="345" y="575"/>
      <point x="376" y="618"/>
      <point x="386" y="694" type="curve"/>
      <point x="340" y="701" type="line"/>
      <point x="332" y="653"/>
      <point x="316" y="633"/>
      <point x="290" y="633" type="curve" smooth="yes"/>
      <point x="249" y="633"/>
      <point x="220" y="699"/>
      <point x="161" y="699" type="curve" smooth="yes"/>
      <point x="106" y="699"/>
      <point x="75" y="656"/>
      <point x="65" y="580" type="curve"/>
      <point x="111" y="573" type="line"/>
      <point x="119" y="621"/>
      <point x="135" y="641"/>
      <point x="161" y="641" type="curve" smooth="yes"/>
      <point x="202" y="641"/>
      <point x="231" y="575"/>
      <point x="290" y="575" type="curve" smooth="yes"/>
    </contour>
    <contour>
      <point x="226" y="704" type="move" name="top"/>
    </contour>
    <contour>
      <point x="226" y="517" type="move" name="_top"/>
    </contour>
  </outline>
</glyph>
<glyph name="hungarumlaut" format="1">
  <advance width="527"/>
  <unicode hex="02DD"/>
  <outline>
    <contour>
      <point x="121" y="575" type="line"/>
      <point x="263" y="702" type="line"/>
      <point x="184" y="720" type="line"/>
      <point x="63" y="575" type="line"/>
    </contour>
    <contour>
      <point x="321" y="575" type="line"/>
      <point x="463" y="700" type="line"/>
      <point x="384" y="718" type="line"/>
      <point x="263" y="575" type="line"/>
    </contour>
    <contour>
      <point x="263" y="704" type="move" name="top"/>
    </contour>
    <contour>
      <point x="263" y="517" type="move" name="_top"/>
    </contour>
  </outline>
</glyph>
<glyph name="commaaccentcomb" format="1">
  <advance width="264"/>
  <unicode hex="0326"/>
  <outline>
    <contour>
      <point x="172" y="-211"/>
      <point x="187" y="-183"/>
      <point x="187" y="-150" type="curve" smooth="yes"/>
      <point x="187" y="-110"/>
      <point x="167" y="-82"/>
      <point x="135" y="-82" type="curve" smooth="yes"/>
      <point x="109" y="-82"/>
      <point x="89" y="-103"/>
      <point x="89" y="-127" type="curve" smooth="yes"/>
      <point x="89" y="-152"/>
      <point x="109" y="-173"/>
      <point x="134" y="-173" type="curve"/>
      <point x="128" y="-200"/>
      <point x="113" y="-226"/>
      <point x="90" y="-252" type="curve"/>
      <point x="122" y="-275" type="line"/>
    </contour>
    <contour>
      <point x="135" y="0" type="move" name="_bottom"/>
    </contour>
    <contour>
      <point x="135" y="517" type="move" name="_top"/>
    </contour>
  </outline>
</glyph>
<glyph name="endash" format="1">
  <advance width="577"/>
  <unicode hex="2013"/>
  <outline>
    <contour>
      <point x="521" y="236" type="line"/>
      <point x="521" y="307" type="line"/>
      <point x="56" y="307" type="line"/>
      <point x="56" y="236" type="line"/>
    </contour>
  </outline>
</glyph>
<glyph name="guilsinglleft" format="1">
  <advance width="311"/>
  <unicode hex="2039"/>
  <outline>
    <contour>
      <point x="266" y="69" type="line"/>
      <point x="119" y="252" type="line"/>
      <point x="266" y="432" type="line"/>
      <point x="199" y="448" type="line"/>
      <point x="38" y="251" type="line"/>
      <point x="199" y="52" type="line"/>
    </contour>
  </outline>
</glyph>
<glyph name="a.alt" format="1">
  <advance width="638"/>
  <outline>
    <contour>
      <point x="555" y="0" type="line"/>
      <point x="555" y="517" type="line"/>
      <point x="480" y="517" type="line"/>
      <point x="480" y="0" type="line"/>
    </contour>
    <component base="lowercase_loop" xOffset="608" xScale="-1"/>
    <contour>
      <point x="325" y="517" type="move" name="top"/>
    </contour>
    <contour>
      <point x="555" y="0" type="move" name="bottom"/>
    </contour>
  </outline>
</glyph>
<glyph name="descender" format="1">
  <advance width="638"/>
  <outline>
    <contour>
      <point x="158" y="-172" type="line"/>
      <point x="158" y="517" type="line"/>
      <point x="83" y="517" type="line"/>
      <point x="83" y="-172" type="line"/>
    </contour>
  </outline>
</glyph>
<glyph name="lowercase_nh_shoulder" format="1">
  <advance width="600"/>
  <outline>
    <contour>
      <point x="516" y="0" type="line"/>
      <point x="516" y="329" type="line" smooth="yes"/>
      <point x="516" y="446"/>
      <point x="436" y="529"/>
      <point x="322" y="529" type="curve" smooth="yes"/>
      <point x="226" y="529"/>
      <point x="141" y="460"/>
      <point x="136" y="379" type="curve"/>
      <point x="152" y="329" type="line"/>
      <point x="152" y="401"/>
      <point x="225" y="462"/>
      <point x="312" y="462" type="curve" smooth="yes"/>
      <point x="388" y="462"/>
      <point x="441" y="403"/>
      <point x="441" y="319" type="curve" smooth="yes"/>
      <point x="441" y="0" type="line"/>
    </contour>
  </outline>
</glyph>
